<svg xmlns="http://www.w3.org/2000/svg" xmlns:xlink="http://www.w3.org/1999/xlink" fill="none" version="1.1" width="18" height="18" viewBox="0 0 18.0001220703125 18"><path d="M17.752266,9.597600953503418C18.082705,9.267163253503417,18.082705,8.732837153503418,17.752266,8.405914353503418L12.690233,3.340366853503418C12.447678,3.097810953503418,12.085602,3.0275050535034183,11.769224,3.157571353503418C11.452847,3.287637453503418,11.24896,3.596983653503418,11.24896,3.937967753503418L11.24896,6.750207853503418L7.3118243,6.750207853503418C6.38027,6.750207853503418,5.6244802,7.505997653503418,5.6244802,8.437551953503418L5.6244802,9.562447553503418C5.6244802,10.494002353503419,6.38027,11.249791653503419,7.3118243,11.249791653503419L11.24896,11.249791653503419L11.24896,14.062031653503418C11.24896,14.403016653503418,11.452847,14.712362653503417,11.769224,14.842429653503418C12.085602,14.972495653503419,12.447677,14.902190653503418,12.690233,14.659633653503418L17.752266,9.597600953503418ZM5.6244802,3.375519753503418C6.2466884,3.375519753503418,6.7493763,2.872831653503418,6.7493763,2.2506236535034176C6.7493763,1.6284157035034181,6.2466884,1.125727653503418,5.6244802,1.125727653503418L3.3746881,1.125727653503418C1.511579,1.125727653503418,0,2.637306653503418,0,4.500415753503418L0,13.499584653503417C0,15.362692653503418,1.511579,16.874272653503418,3.3746881,16.874272653503418L5.6244802,16.874272653503418C6.2466884,16.874272653503418,6.7493763,16.37158465350342,6.7493763,15.749376653503418C6.7493763,15.127167653503419,6.2466884,14.624480653503419,5.6244802,14.624480653503419L3.3746881,14.624480653503419C2.75248,14.624480653503419,2.2497921,14.121792653503418,2.2497921,13.499584653503417L2.2497921,4.500415753503418C2.2497921,3.878207653503418,2.75248,3.375519753503418,3.3746881,3.375519753503418L5.6244802,3.375519753503418Z" fill="#FF3B30" fill-opacity="1" style="mix-blend-mode:passthrough"/></svg>