<svg xmlns="http://www.w3.org/2000/svg" xmlns:xlink="http://www.w3.org/1999/xlink" fill="none" version="1.1" width="26" height="26" viewBox="0 0 26 26"><path d="M4.5882239,4.588255926147461C4.5882239,2.901127726147461,5.9599113,1.529439926147461,7.6470399,1.529439926147461L22.94112,1.529439926147461C24.628248,1.529439926147461,25.999935,2.901127726147461,25.999935,4.588255926147461L25.999935,16.823519926147462C25.999935,18.510646926147462,24.628248,19.882335926147462,22.94112,19.882335926147462L7.6470399,19.882335926147462C5.9599113,19.882335926147462,4.5882239,18.510646926147462,4.5882239,16.823519926147462L4.5882239,4.588255926147461ZM1.147056,6.117663826147461C1.7827162,6.117663826147461,2.294112,6.629059326147461,2.294112,7.264719926147461L2.294112,21.41174292614746C2.294112,21.83233092614746,2.6382289,22.17644692614746,3.058816,22.17644692614746L20.264656,22.17644692614746C20.900316,22.17644692614746,21.411713,22.68784292614746,21.411713,23.32350392614746C21.411713,23.95916392614746,20.900316,24.470559926147462,20.264656,24.470559926147462L3.058816,24.470559926147462C1.3716878,24.470559926147462,0,23.098870926147463,0,21.41174292614746L0,7.264719926147461C0,6.629059326147461,0.51139581,6.117663826147461,1.147056,6.117663826147461ZM9.1764479,7.647071826147461C10.021116,7.647071826147461,10.705856,6.962332726147461,10.705856,6.117663826147461C10.705856,5.2729952261474615,10.021116,4.588255926147461,9.1764479,4.588255926147461C8.3317795,4.588255926147461,7.6470399,5.2729952261474615,7.6470399,6.117663826147461C7.6470399,6.962332726147461,8.3317795,7.647071826147461,9.1764479,7.647071826147461ZM18.567968,8.196702926147461C18.357676,7.857365126147461,17.98966,7.647071826147461,17.588192,7.647071826147461C17.186722,7.647071826147461,16.818708,7.857365126147461,16.608416,8.196702926147461L13.917613,12.598530926147461L12.74666,11.136034026147462C12.526808,10.86360832614746,12.201809,10.70588782614746,11.852913,10.70588782614746C11.504016,10.70588782614746,11.174238,10.86360832614746,10.959165,11.136034026147462L7.9003491,14.95955392614746C7.6231437,15.303670926147461,7.5705705,15.77683192614746,7.7617469,16.17352092614746C7.9529228,16.57021092614746,8.3543911,16.823519926147462,8.794096,16.823519926147462L21.794064,16.823519926147462C22.209871,16.823519926147462,22.592224,16.598887926147462,22.792957,16.23565392614746C22.993692,15.872420926147461,22.988914,15.432714926147462,22.76906,15.074260926147462L18.563189,8.19192452614746L18.567968,8.196702926147461Z" fill="#FFFFFF" fill-opacity="1" style="mix-blend-mode:passthrough"/></svg>