<svg xmlns="http://www.w3.org/2000/svg" xmlns:xlink="http://www.w3.org/1999/xlink" fill="none" version="1.1" width="14" height="14" viewBox="0 0 14 14"><path d="M13.343870960464477,1.5312639470223999C13.343870960464477,1.1675887970224,13.051290960464478,0.8750079870223999,12.687615960464477,0.8750079870223999C12.323940960464478,0.8750079870223999,12.031359960464478,1.1675887970224,12.031359960464478,1.5312639470223999L12.031359960464478,12.4688639870224C12.031359960464478,12.8325389870224,12.323940960464478,13.1251199870224,12.687615960464477,13.1251199870224C13.051290960464478,13.1251199870224,13.343870960464477,12.8325389870224,13.343870960464477,12.4688639870224L13.343870960464477,1.5312639470223999ZM9.843839860464477,3.5000317870224C9.480164760464477,3.5000317870224,9.187584160464478,3.7926126870224,9.187584160464478,4.1562879870224005L9.187584160464478,12.4688639870224C9.187584160464478,12.8325389870224,9.480164760464477,13.1251199870224,9.843839860464477,13.1251199870224C10.207514960464477,13.1251199870224,10.500095560464478,12.8325389870224,10.500095560464478,12.4688639870224L10.500095560464478,4.1562879870224005C10.500095560464478,3.7926126870224,10.207514960464477,3.5000317870224,9.843839860464477,3.5000317870224ZM7.656319860464477,6.7813118870224C7.656319860464477,6.4176367870224,7.363738760464478,6.1250556870223996,7.000063660464478,6.1250556870223996C6.636389060464477,6.1250556870223996,6.343807960464478,6.4176367870224,6.343807960464478,6.7813118870224L6.343807960464478,12.4688639870224C6.343807960464478,12.8325389870224,6.636388560464478,13.1251199870224,7.000063660464478,13.1251199870224C7.363738760464478,13.1251199870224,7.656319860464477,12.8325389870224,7.656319860464477,12.4688639870224L7.656319860464477,6.7813118870224ZM4.156287860464477,8.7500799870224C3.7926125604644776,8.7500799870224,3.5000319604644776,9.0426610870224,3.5000319604644776,9.4063361870224L3.5000319604644776,12.4688639870224C3.5000319604644776,12.8325389870224,3.7926125604644776,13.1251199870224,4.156287860464477,13.1251199870224C4.519963260464477,13.1251199870224,4.812544060464478,12.8325389870224,4.812544060464478,12.4688639870224L4.812544060464478,9.4063361870224C4.812544060464478,9.0426610870224,4.519963260464477,8.7500799870224,4.156287860464477,8.7500799870224ZM1.3125119204644775,10.5000956870224C0.9488367704644776,10.5000956870224,0.6562559604644775,10.7926772870224,0.6562559604644775,11.1563509870224L0.6562559604644775,12.4688639870224C0.6562559604644775,12.8325389870224,0.9488367704644776,13.1251199870224,1.3125119204644775,13.1251199870224C1.6761871604644776,13.1251199870224,1.9687678604644776,12.8325389870224,1.9687678604644776,12.4688639870224L1.9687678604644776,11.1563509870224C1.9687678604644776,10.7926772870224,1.6761871604644776,10.5000956870224,1.3125119204644775,10.5000956870224Z" fill="#1A1A1A" fill-opacity="1" style="mix-blend-mode:passthrough"/></svg>